<svg width="75" height="75" viewBox="0 0 75 75" fill="none" xmlns="http://www.w3.org/2000/svg">
<path d="M52.7657 36.4414H28.7675L43.1312 23.9727C43.3608 23.7717 43.2214 23.3984 42.9179 23.3984H39.288C39.128 23.3984 38.9763 23.4559 38.8573 23.5584L23.3575 37.0074C23.2156 37.1305 23.1017 37.2826 23.0237 37.4535C22.9457 37.6244 22.9053 37.8101 22.9053 37.9979C22.9053 38.1858 22.9457 38.3715 23.0237 38.5424C23.1017 38.7133 23.2156 38.8654 23.3575 38.9885L38.9476 52.5195C39.0091 52.5729 39.0829 52.6016 39.1608 52.6016H42.9138C43.2173 52.6016 43.3567 52.2242 43.1271 52.0273L28.7675 39.5586H52.7657C52.9462 39.5586 53.0939 39.4109 53.0939 39.2305V36.7695C53.0939 36.5891 52.9462 36.4414 52.7657 36.4414Z" fill="white"/>
<circle cx="37.5" cy="37.5" r="37" stroke="white"/>
</svg>
